<?xml version="1.0" encoding="utf-8" standalone="no"?>
<!DOCTYPE svg PUBLIC "-//W3C//DTD SVG 1.1//EN"
  "http://www.w3.org/Graphics/SVG/1.1/DTD/svg11.dtd">
<svg xmlns:xlink="http://www.w3.org/1999/xlink" width="226.08pt" height="180.72pt" viewBox="0 0 226.08 180.72" xmlns="http://www.w3.org/2000/svg" version="1.1">
 <metadata>
  <rdf:RDF xmlns:dc="http://purl.org/dc/elements/1.1/" xmlns:cc="http://creativecommons.org/ns#" xmlns:rdf="http://www.w3.org/1999/02/22-rdf-syntax-ns#">
   <cc:Work>
    <dc:type rdf:resource="http://purl.org/dc/dcmitype/StillImage"/>
    <dc:date>2026-01-06T15:06:07.788427</dc:date>
    <dc:format>image/svg+xml</dc:format>
    <dc:creator>
     <cc:Agent>
      <dc:title>Matplotlib v3.10.7, https://matplotlib.org/</dc:title>
     </cc:Agent>
    </dc:creator>
   </cc:Work>
  </rdf:RDF>
 </metadata>
 <defs>
  <style type="text/css">*{stroke-linejoin: round; stroke-linecap: butt}</style>
 </defs>
 <g id="figure_1">
  <g id="patch_1">
   <path d="M 0 180.72 
L 226.08 180.72 
L 226.08 0 
L 0 0 
L 0 180.72 
z
" style="fill: none"/>
  </g>
  <g id="axes_1">
   <g id="patch_2">
    <path d="M 18.54 90.36 
L 18.750234 90.326538 
L 18.960467 90.265785 
L 19.170701 90.187702 
L 19.380934 90.095935 
L 19.591168 89.992635 
L 19.801402 89.879281 
L 20.011635 89.756977 
L 20.221869 89.626594 
L 20.432102 89.488844 
L 20.642336 89.344324 
L 20.85257 89.193546 
L 21.062803 89.036957 
L 21.273037 88.874951 
L 21.48327 88.707879 
L 21.693504 88.536059 
L 21.903737 88.359777 
L 22.113971 88.179297 
L 22.324205 87.994859 
L 22.534438 87.806688 
L 22.744672 87.614989 
L 22.954905 87.419955 
L 23.165139 87.221767 
L 23.375373 87.020593 
L 23.585606 86.816592 
L 23.79584 86.609913 
L 24.006073 86.400698 
L 24.216307 86.18908 
L 24.426541 85.975186 
L 24.636774 85.759136 
L 24.847008 85.541045 
L 25.057241 85.321023 
L 25.267475 85.099173 
L 25.477709 84.875595 
L 25.687942 84.650384 
L 25.898176 84.423632 
L 26.108409 84.195426 
L 26.318643 83.96585 
L 26.528877 83.734985 
L 26.73911 83.502907 
L 26.949344 83.269692 
L 27.159577 83.035412 
L 27.369811 82.800134 
L 27.580044 82.563927 
L 27.790278 82.326853 
L 28.000512 82.088975 
L 28.210745 81.850354 
L 28.420979 81.611045 
L 28.631212 81.371107 
L 28.841446 81.130591 
L 29.05168 80.889551 
L 29.261913 80.648037 
L 29.472147 80.406098 
L 29.68238 80.16378 
L 29.892614 79.921131 
L 30.102848 79.678194 
L 30.313081 79.435013 
L 30.523315 79.191628 
L 30.733548 78.948081 
L 30.943782 78.70441 
L 31.154016 78.460654 
L 31.364249 78.216849 
L 31.574483 77.973032 
L 31.784716 77.729236 
L 31.99495 77.485496 
L 32.205184 77.241845 
L 32.415417 76.998313 
L 32.625651 76.754932 
L 32.835884 76.511733 
L 33.046118 76.268743 
L 33.256352 76.025991 
L 33.466585 75.783505 
L 33.676819 75.541311 
L 33.887052 75.299435 
L 34.097286 75.057903 
L 34.307519 74.816738 
L 34.517753 74.575965 
L 34.727987 74.335607 
L 34.93822 74.095685 
L 35.148454 73.856222 
L 35.358687 73.61724 
L 35.568921 73.378758 
L 35.779155 73.140796 
L 35.989388 72.903374 
L 36.199622 72.666511 
L 36.409855 72.430226 
L 36.620089 72.194535 
L 36.830323 71.959456 
L 37.040556 71.725007 
L 37.25079 71.491203 
L 37.461023 71.25806 
L 37.671257 71.025594 
L 37.881491 70.793819 
L 38.091724 70.562751 
L 38.301958 70.332403 
L 38.512191 70.102788 
L 38.722425 69.873921 
L 38.932659 69.645814 
L 39.142892 69.418479 
L 39.353126 69.191929 
L 39.563359 68.966175 
L 39.773593 68.74123 
L 39.983826 68.517103 
L 40.19406 68.293805 
L 40.404294 68.071348 
L 40.614527 67.84974 
L 40.824761 67.628992 
L 41.034994 67.409114 
L 41.245228 67.190113 
L 41.455462 66.972 
L 41.665695 66.754783 
L 41.875929 66.538469 
L 42.086162 66.323067 
L 42.296396 66.108585 
L 42.50663 65.89503 
L 42.716863 65.682409 
L 42.927097 65.470729 
L 43.13733 65.259997 
L 43.347564 65.050219 
L 43.557798 64.841402 
L 43.768031 64.633551 
L 43.978265 64.426673 
L 44.188498 64.220772 
L 44.398732 64.015855 
L 44.608966 63.811925 
L 44.819199 63.608989 
L 45.029433 63.40705 
L 45.239666 63.206114 
L 45.4499 63.006185 
L 45.660133 62.807266 
L 45.870367 62.609362 
L 46.080601 62.412476 
L 46.290834 62.216612 
L 46.501068 62.021774 
L 46.711301 61.827964 
L 46.921535 61.635185 
L 47.131769 61.443442 
L 47.342002 61.252735 
L 47.552236 61.063068 
L 47.762469 60.874444 
L 47.972703 60.686864 
L 48.182937 60.500331 
L 48.39317 60.314846 
L 48.603404 60.130412 
L 48.813637 59.94703 
L 49.023871 59.764702 
L 49.234105 59.583428 
L 49.444338 59.403212 
L 49.654572 59.224052 
L 49.864805 59.045952 
L 50.075039 58.868911 
L 50.285273 58.69293 
L 50.495506 58.518011 
L 50.70574 58.344153 
L 50.915973 58.171357 
L 51.126207 57.999624 
L 51.33644 57.828953 
L 51.546674 57.659345 
L 51.756908 57.4908 
L 51.967141 57.323317 
L 52.177375 57.156898 
L 52.387608 56.99154 
L 52.597842 56.827245 
L 52.808076 56.66401 
L 53.018309 56.501837 
L 53.228543 56.340724 
L 53.438776 56.180671 
L 53.64901 56.021676 
L 53.859244 55.863739 
L 54.069477 55.706859 
L 54.279711 55.551035 
L 54.489944 55.396266 
L 54.700178 55.242549 
L 54.910412 55.089885 
L 55.120645 54.938272 
L 55.330879 54.787707 
L 55.541112 54.638191 
L 55.751346 54.489721 
L 55.96158 54.342295 
L 56.171813 54.195912 
L 56.382047 54.05057 
L 56.59228 53.906266 
L 56.802514 53.763001 
L 57.012747 53.62077 
L 57.222981 53.479572 
L 57.433215 53.339406 
L 57.643448 53.200268 
L 57.853682 53.062157 
L 58.063915 52.92507 
L 58.274149 52.789005 
L 58.484383 52.65396 
L 58.694616 52.519933 
L 58.90485 52.386919 
L 59.115083 52.254918 
L 59.325317 52.123927 
L 59.535551 51.993943 
L 59.745784 51.864962 
L 59.956018 51.736984 
L 60.166251 51.610004 
L 60.376485 51.48402 
L 60.586719 51.359029 
L 60.796952 51.235028 
L 61.007186 51.112014 
L 61.217419 50.989985 
L 61.427653 50.868936 
L 61.637887 50.748866 
L 61.84812 50.629771 
L 62.058354 50.511648 
L 62.268587 50.394493 
L 62.478821 50.278304 
L 62.689055 50.163077 
L 62.899288 50.048809 
L 63.109522 49.935497 
L 63.319755 49.823137 
L 63.529989 49.711726 
L 63.740222 49.60126 
L 63.950456 49.491737 
L 64.16069 49.383152 
L 64.370923 49.275502 
L 64.581157 49.168784 
L 64.79139 49.062994 
L 65.001624 48.958129 
L 65.211858 48.854184 
L 65.422091 48.751156 
L 65.632325 48.649042 
L 65.842558 48.547838 
L 66.052792 48.447541 
L 66.263026 48.348145 
L 66.473259 48.249649 
L 66.683493 48.152047 
L 66.893726 48.055337 
L 67.10396 47.959514 
L 67.314194 47.864575 
L 67.524427 47.770516 
L 67.734661 47.677332 
L 67.944894 47.585021 
L 68.155128 47.493577 
L 68.365362 47.402998 
L 68.575595 47.313279 
L 68.785829 47.224417 
L 68.996062 47.136407 
L 69.206296 47.049245 
L 69.416529 46.962928 
L 69.626763 46.877452 
L 69.836997 46.792811 
L 70.04723 46.709004 
L 70.257464 46.626024 
L 70.467697 46.543869 
L 70.677931 46.462534 
L 70.888165 46.382016 
L 71.098398 46.30231 
L 71.308632 46.223411 
L 71.518865 46.145317 
L 71.729099 46.068023 
L 71.939333 45.991524 
L 72.149566 45.915817 
L 72.3598 45.840898 
L 72.570033 45.766762 
L 72.780267 45.693405 
L 72.990501 45.620823 
L 73.200734 45.549012 
L 73.410968 45.477968 
L 73.621201 45.407687 
L 73.831435 45.338164 
L 74.041669 45.269395 
L 74.251902 45.201376 
L 74.462136 45.134104 
L 74.672369 45.067573 
L 74.882603 45.001779 
L 75.092836 44.936719 
L 75.30307 44.872389 
L 75.513304 44.808783 
L 75.723537 44.745898 
L 75.933771 44.68373 
L 76.144004 44.622274 
L 76.354238 44.561526 
L 76.564472 44.501483 
L 76.774705 44.442139 
L 76.984939 44.383491 
L 77.195172 44.325534 
L 77.405406 44.268265 
L 77.61564 44.211679 
L 77.825873 44.155772 
L 78.036107 44.10054 
L 78.24634 44.045978 
L 78.456574 43.992082 
L 78.666808 43.938849 
L 78.877041 43.886274 
L 79.087275 43.834353 
L 79.297508 43.783082 
L 79.507742 43.732456 
L 79.717976 43.682472 
L 79.928209 43.633126 
L 80.138443 43.584412 
L 80.348676 43.536328 
L 80.55891 43.488868 
L 80.769143 43.44203 
L 80.979377 43.395808 
L 81.189611 43.350199 
L 81.399844 43.305198 
L 81.610078 43.260802 
L 81.820311 43.217007 
L 82.030545 43.173807 
L 82.240779 43.131201 
L 82.451012 43.089182 
L 82.661246 43.047748 
L 82.871479 43.006894 
L 83.081713 42.966616 
L 83.291947 42.92691 
L 83.50218 42.887772 
L 83.712414 42.849199 
L 83.922647 42.811186 
L 84.132881 42.773729 
L 84.343115 42.736825 
L 84.553348 42.700469 
L 84.763582 42.664657 
L 84.973815 42.629386 
L 85.184049 42.594652 
L 85.394283 42.56045 
L 85.604516 42.526777 
L 85.81475 42.49363 
L 86.024983 42.461003 
L 86.235217 42.428894 
L 86.445451 42.397299 
L 86.655684 42.366213 
L 86.865918 42.335633 
L 87.076151 42.305556 
L 87.286385 42.275976 
L 87.496618 42.246892 
L 87.706852 42.218299 
L 87.917086 42.190192 
L 88.127319 42.16257 
L 88.337553 42.135427 
L 88.547786 42.10876 
L 88.75802 42.082566 
L 88.968254 42.056841 
L 89.178487 42.031581 
L 89.388721 42.006783 
L 89.598954 41.982444 
L 89.809188 41.958558 
L 90.019422 41.935124 
L 90.229655 41.912138 
L 90.439889 41.889595 
L 90.650122 41.867494 
L 90.860356 41.845829 
L 91.07059 41.824598 
L 91.280823 41.803797 
L 91.491057 41.783423 
L 91.70129 41.763472 
L 91.911524 41.743942 
L 92.121758 41.724828 
L 92.331991 41.706128 
L 92.542225 41.687838 
L 92.752458 41.669955 
L 92.962692 41.652475 
L 93.172925 41.635396 
L 93.383159 41.618714 
L 93.593393 41.602426 
L 93.803626 41.586528 
L 94.01386 41.571018 
L 94.224093 41.555893 
L 94.434327 41.541149 
L 94.644561 41.526783 
L 94.854794 41.512793 
L 95.065028 41.499175 
L 95.275261 41.485926 
L 95.485495 41.473043 
L 95.695729 41.460523 
L 95.905962 41.448364 
L 96.116196 41.436562 
L 96.326429 41.425114 
L 96.536663 41.414018 
L 96.746897 41.403271 
L 96.95713 41.392869 
L 97.167364 41.382811 
L 97.377597 41.373093 
L 97.587831 41.363713 
L 97.798065 41.354667 
L 98.008298 41.345954 
L 98.218532 41.33757 
L 98.428765 41.329513 
L 98.638999 41.32178 
L 98.849232 41.314369 
L 99.059466 41.307277 
L 99.2697 41.300501 
L 99.479933 41.29404 
L 99.690167 41.28789 
L 99.9004 41.282048 
L 100.110634 41.276514 
L 100.320868 41.271283 
L 100.531101 41.266355 
L 100.741335 41.261726 
L 100.951568 41.257394 
L 101.161802 41.253356 
L 101.372036 41.249611 
L 101.582269 41.246157 
L 101.792503 41.24299 
L 102.002736 41.24011 
L 102.21297 41.237513 
L 102.423204 41.235197 
L 102.633437 41.233161 
L 102.843671 41.231403 
L 103.053904 41.229919 
L 103.264138 41.228709 
L 103.474372 41.22777 
L 103.684605 41.227101 
L 103.894839 41.226698 
L 104.105072 41.226562 
L 104.315306 41.226689 
L 104.525539 41.227077 
L 104.735773 41.227725 
L 104.946007 41.228632 
L 105.15624 41.229795 
L 105.366474 41.231212 
L 105.576707 41.232882 
L 105.786941 41.234804 
L 105.997175 41.236975 
L 106.207408 41.239394 
L 106.417642 41.242059 
L 106.627875 41.244969 
L 106.838109 41.248122 
L 107.048343 41.251517 
L 107.258576 41.255152 
L 107.46881 41.259026 
L 107.679043 41.263138 
L 107.889277 41.267485 
L 108.099511 41.272067 
L 108.309744 41.276883 
L 108.519978 41.28193 
L 108.730211 41.287209 
L 108.940445 41.292716 
L 109.150679 41.298453 
L 109.360912 41.304416 
L 109.571146 41.310605 
L 109.781379 41.31702 
L 109.991613 41.323658 
L 110.201846 41.330519 
L 110.41208 41.337602 
L 110.622314 41.344905 
L 110.832547 41.352428 
L 111.042781 41.36017 
L 111.253014 41.368131 
L 111.463248 41.376308 
L 111.673482 41.384701 
L 111.883715 41.39331 
L 112.093949 41.402134 
L 112.304182 41.411171 
L 112.514416 41.420422 
L 112.72465 41.429885 
L 112.934883 41.43956 
L 113.145117 41.4498 
L 113.35535 41.462098 
L 113.565584 41.476257 
L 113.775818 41.492104 
L 113.986051 41.509539 
L 114.196285 41.528491 
L 114.406518 41.548907 
L 114.616752 41.570743 
L 114.826986 41.593962 
L 115.037219 41.618534 
L 115.247453 41.64443 
L 115.457686 41.671627 
L 115.66792 41.700101 
L 115.878154 41.729834 
L 116.088387 41.760807 
L 116.298621 41.793002 
L 116.508854 41.826403 
L 116.719088 41.860996 
L 116.929321 41.896766 
L 117.139555 41.9337 
L 117.349789 41.971785 
L 117.560022 42.011009 
L 117.770256 42.05136 
L 117.980489 42.092828 
L 118.190723 42.1354 
L 118.400957 42.179067 
L 118.61119 42.22382 
L 118.821424 42.269646 
L 119.031657 42.316539 
L 119.241891 42.364487 
L 119.452125 42.413483 
L 119.662358 42.463516 
L 119.872592 42.51458 
L 120.082825 42.566664 
L 120.293059 42.619761 
L 120.503293 42.673863 
L 120.713526 42.728961 
L 120.92376 42.785048 
L 121.133993 42.842115 
L 121.344227 42.900156 
L 121.554461 42.959163 
L 121.764694 43.019127 
L 121.974928 43.080042 
L 122.185161 43.141901 
L 122.395395 43.204695 
L 122.605628 43.268418 
L 122.815862 43.333063 
L 123.026096 43.398623 
L 123.236329 43.465089 
L 123.446563 43.532457 
L 123.656796 43.600717 
L 123.86703 43.669865 
L 124.077264 43.739892 
L 124.287497 43.810792 
L 124.497731 43.882557 
L 124.707964 43.955182 
L 124.918198 44.028659 
L 125.128432 44.102981 
L 125.338665 44.178142 
L 125.548899 44.254135 
L 125.759132 44.330953 
L 125.969366 44.40859 
L 126.1796 44.487038 
L 126.389833 44.56629 
L 126.600067 44.646341 
L 126.8103 44.727183 
L 127.020534 44.808809 
L 127.230768 44.891213 
L 127.441001 44.974387 
L 127.651235 45.058326 
L 127.861468 45.143022 
L 128.071702 45.228467 
L 128.281935 45.314656 
L 128.492169 45.401581 
L 128.702403 45.489236 
L 128.912636 45.577613 
L 129.12287 45.666705 
L 129.333103 45.756506 
L 129.543337 45.847008 
L 129.753571 45.938203 
L 129.963804 46.030086 
L 130.174038 46.122648 
L 130.384271 46.215883 
L 130.594505 46.309782 
L 130.804739 46.404339 
L 131.014972 46.499546 
L 131.225206 46.595396 
L 131.435439 46.691881 
L 131.645673 46.788994 
L 131.855907 46.886726 
L 132.06614 46.985071 
L 132.276374 47.08402 
L 132.486607 47.183565 
L 132.696841 47.283699 
L 132.907075 47.384414 
L 133.117308 47.485701 
L 133.327542 47.587552 
L 133.537775 47.689959 
L 133.748009 47.792914 
L 133.958242 47.896408 
L 134.168476 48.000432 
L 134.37871 48.104979 
L 134.588943 48.21004 
L 134.799177 48.315605 
L 135.00941 48.421665 
L 135.219644 48.528213 
L 135.429878 48.635238 
L 135.640111 48.742732 
L 135.850345 48.850685 
L 136.060578 48.959088 
L 136.270812 49.067932 
L 136.481046 49.177206 
L 136.691279 49.286901 
L 136.901513 49.397008 
L 137.111746 49.507516 
L 137.32198 49.618415 
L 137.532214 49.729695 
L 137.742447 49.841346 
L 137.952681 49.953358 
L 138.162914 50.065719 
L 138.373148 50.17842 
L 138.583382 50.291449 
L 138.793615 50.404796 
L 139.003849 50.518449 
L 139.214082 50.632398 
L 139.424316 50.746631 
L 139.634549 50.861136 
L 139.844783 50.975903 
L 140.055017 51.09092 
L 140.26525 51.206175 
L 140.475484 51.321656 
L 140.685717 51.437351 
L 140.895951 51.553248 
L 141.106185 51.669334 
L 141.316418 51.785599 
L 141.526652 51.902028 
L 141.736885 52.018609 
L 141.947119 52.135331 
L 142.157353 52.252179 
L 142.367586 52.369142 
L 142.57782 52.486206 
L 142.788053 52.603357 
L 142.998287 52.720584 
L 143.208521 52.837872 
L 143.418754 52.955209 
L 143.628988 53.072581 
L 143.839221 53.189973 
L 144.049455 53.307374 
L 144.259689 53.424769 
L 144.469922 53.542144 
L 144.680156 53.659486 
L 144.890389 53.776781 
L 145.100623 53.894014 
L 145.310857 54.011173 
L 145.52109 54.128243 
L 145.731324 54.245211 
L 145.941557 54.362062 
L 146.151791 54.478782 
L 146.362024 54.595358 
L 146.572258 54.711776 
L 146.782492 54.828021 
L 146.992725 54.944081 
L 147.202959 55.05994 
L 147.413192 55.175586 
L 147.623426 55.291005 
L 147.83366 55.406183 
L 148.043893 55.521106 
L 148.254127 55.635762 
L 148.46436 55.750137 
L 148.674594 55.864217 
L 148.884828 55.977991 
L 149.095061 56.091444 
L 149.305295 56.204565 
L 149.515528 56.317341 
L 149.725762 56.429759 
L 149.935996 56.541808 
L 150.146229 56.653476 
L 150.356463 56.76475 
L 150.566696 56.87562 
L 150.77693 56.986075 
L 150.987164 57.096103 
L 151.197397 57.205695 
L 151.407631 57.31484 
L 151.617864 57.423529 
L 151.828098 57.531751 
L 152.038331 57.639498 
L 152.248565 57.746761 
L 152.458799 57.853531 
L 152.669032 57.959802 
L 152.879266 58.065564 
L 153.089499 58.170813 
L 153.299733 58.275539 
L 153.509967 58.379739 
L 153.7202 58.483406 
L 153.930434 58.586535 
L 154.140667 58.689121 
L 154.350901 58.791162 
L 154.561135 58.892652 
L 154.771368 58.99359 
L 154.981602 59.093974 
L 155.191835 59.193801 
L 155.402069 59.293071 
L 155.612303 59.391783 
L 155.822536 59.489938 
L 156.03277 59.587537 
L 156.243003 59.684581 
L 156.453237 59.781073 
L 156.663471 59.877015 
L 156.873704 59.972413 
L 157.083938 60.067269 
L 157.294171 60.16159 
L 157.504405 60.255382 
L 157.714638 60.348651 
L 157.924872 60.441404 
L 158.135106 60.533651 
L 158.345339 60.625399 
L 158.555573 60.71666 
L 158.765806 60.807444 
L 158.97604 60.897761 
L 159.186274 60.987625 
L 159.396507 61.077049 
L 159.606741 61.166046 
L 159.816974 61.254631 
L 160.027208 61.342819 
L 160.237442 61.430628 
L 160.447675 61.518073 
L 160.657909 61.605173 
L 160.868142 61.691946 
L 161.078376 61.778412 
L 161.28861 61.864591 
L 161.498843 61.950504 
L 161.709077 62.036172 
L 161.91931 62.121619 
L 162.129544 62.206868 
L 162.339778 62.291941 
L 162.550011 62.376865 
L 162.760245 62.461664 
L 162.970478 62.546365 
L 163.180712 62.630994 
L 163.390945 62.715579 
L 163.601179 62.800146 
L 163.811413 62.884726 
L 164.021646 62.969347 
L 164.23188 63.05404 
L 164.442113 63.138833 
L 164.652347 63.223758 
L 164.862581 63.308846 
L 165.072814 63.394129 
L 165.283048 63.479638 
L 165.493281 63.565407 
L 165.703515 63.651468 
L 165.913749 63.737855 
L 166.123982 63.8246 
L 166.334216 63.911738 
L 166.544449 63.999302 
L 166.754683 64.087327 
L 166.964917 64.175846 
L 167.17515 64.264895 
L 167.385384 64.354508 
L 167.595617 64.444719 
L 167.805851 64.535563 
L 168.016085 64.627074 
L 168.226318 64.719287 
L 168.436552 64.812235 
L 168.646785 64.905954 
L 168.857019 65.000477 
L 169.067253 65.095838 
L 169.277486 65.19207 
L 169.48772 65.289205 
L 169.697953 65.387278 
L 169.908187 65.48632 
L 170.11842 65.586362 
L 170.328654 65.687436 
L 170.538888 65.789574 
L 170.749121 65.892804 
L 170.959355 65.997157 
L 171.169588 66.102661 
L 171.379822 66.209345 
L 171.590056 66.317235 
L 171.800289 66.426359 
L 172.010523 66.536742 
L 172.220756 66.648409 
L 172.43099 66.761385 
L 172.641224 66.875691 
L 172.851457 66.99135 
L 173.061691 67.108384 
L 173.271924 67.226811 
L 173.482158 67.346651 
L 173.692392 67.467922 
L 173.902625 67.59064 
L 174.112859 67.714821 
L 174.323092 67.840478 
L 174.533326 67.967625 
L 174.74356 68.096273 
L 174.953793 68.226434 
L 175.164027 68.358114 
L 175.37426 68.491324 
L 175.584494 68.626068 
L 175.794727 68.762353 
L 176.004961 68.90018 
L 176.215195 69.039554 
L 176.425428 69.180473 
L 176.635662 69.322939 
L 176.845895 69.466948 
L 177.056129 69.612498 
L 177.266363 69.759582 
L 177.476596 69.908196 
L 177.68683 70.05833 
L 177.897063 70.209975 
L 178.107297 70.363121 
L 178.317531 70.517755 
L 178.527764 70.673863 
L 178.737998 70.831431 
L 178.948231 70.990441 
L 179.158465 71.150876 
L 179.368699 71.312716 
L 179.578932 71.47594 
L 179.789166 71.640526 
L 179.999399 71.80645 
L 180.209633 71.973687 
L 180.419867 72.142211 
L 180.6301 72.311995 
L 180.840334 72.483009 
L 181.050567 72.655223 
L 181.260801 72.828607 
L 181.471034 73.003127 
L 181.681268 73.17875 
L 181.891502 73.35544 
L 182.101735 73.533163 
L 182.311969 73.711882 
L 182.522202 73.891557 
L 182.732436 74.072151 
L 182.94267 74.253623 
L 183.152903 74.435933 
L 183.363137 74.619038 
L 183.57337 74.802898 
L 183.783604 74.987467 
L 183.993838 75.172703 
L 184.204071 75.35856 
L 184.414305 75.544993 
L 184.624538 75.731957 
L 184.834772 75.919406 
L 185.045006 76.107291 
L 185.255239 76.295566 
L 185.465473 76.484182 
L 185.675706 76.673093 
L 185.88594 76.862249 
L 186.096174 77.051601 
L 186.306407 77.241102 
L 186.516641 77.4307 
L 186.726874 77.620349 
L 186.937108 77.809997 
L 187.147341 77.999596 
L 187.357575 78.189097 
L 187.567809 78.37845 
L 187.778042 78.567606 
L 187.988276 78.756517 
L 188.198509 78.945133 
L 188.408743 79.133406 
L 188.618977 79.321288 
L 188.82921 79.508732 
L 189.039444 79.695688 
L 189.249677 79.882112 
L 189.459911 80.067955 
L 189.670145 80.253171 
L 189.880378 80.437716 
L 190.090612 80.621544 
L 190.300845 80.80461 
L 190.511079 80.986871 
L 190.721313 81.168283 
L 190.931546 81.348804 
L 191.14178 81.528393 
L 191.352013 81.707007 
L 191.562247 81.884606 
L 191.772481 82.061152 
L 191.982714 82.236605 
L 192.192948 82.410927 
L 192.403181 82.584081 
L 192.613415 82.756032 
L 192.823648 82.926742 
L 193.033882 83.096179 
L 193.244116 83.264308 
L 193.454349 83.431096 
L 193.664583 83.596512 
L 193.874816 83.760525 
L 194.08505 83.923104 
L 194.295284 84.084221 
L 194.505517 84.243846 
L 194.715751 84.401954 
L 194.925984 84.558517 
L 195.136218 84.71351 
L 195.346452 84.866907 
L 195.556685 85.018686 
L 195.766919 85.168823 
L 195.977152 85.317295 
L 196.187386 85.464083 
L 196.39762 85.609164 
L 196.607853 85.752519 
L 196.818087 85.894129 
L 197.02832 86.033976 
L 197.238554 86.172042 
L 197.448788 86.30831 
L 197.659021 86.442764 
L 197.869255 86.575388 
L 198.079488 86.706166 
L 198.289722 86.835084 
L 198.499956 86.962128 
L 198.710189 87.087284 
L 198.920423 87.210538 
L 199.130656 87.331877 
L 199.34089 87.451288 
L 199.551123 87.568759 
L 199.761357 87.684276 
L 199.971591 87.797829 
L 200.181824 87.909403 
L 200.392058 88.018986 
L 200.602291 88.126567 
L 200.812525 88.23213 
L 201.022759 88.335664 
L 201.232992 88.437155 
L 201.443226 88.536588 
L 201.653459 88.633947 
L 201.863693 88.729218 
L 202.073927 88.822382 
L 202.28416 88.913423 
L 202.494394 89.00232 
L 202.704627 89.089053 
L 202.914861 89.173599 
L 203.125095 89.255933 
L 203.335328 89.336028 
L 203.545562 89.413853 
L 203.755795 89.489377 
L 203.966029 89.562561 
L 204.176263 89.633366 
L 204.386496 89.701744 
L 204.59673 89.767645 
L 204.806963 89.83101 
L 205.017197 89.891771 
L 205.22743 89.949852 
L 205.437664 90.005163 
L 205.647898 90.0576 
L 205.858131 90.107039 
L 206.068365 90.153329 
L 206.278598 90.196285 
L 206.488832 90.235676 
L 206.699066 90.271193 
L 206.909299 90.302415 
L 207.119533 90.328707 
L 207.329766 90.348954 
L 207.54 90.36 
L 207.54 90.36 
L 207.329766 90.371046 
L 207.119533 90.391293 
L 206.909299 90.417585 
L 206.699066 90.448807 
L 206.488832 90.484324 
L 206.278598 90.523715 
L 206.068365 90.566671 
L 205.858131 90.612961 
L 205.647898 90.6624 
L 205.437664 90.714837 
L 205.22743 90.770148 
L 205.017197 90.828229 
L 204.806963 90.88899 
L 204.59673 90.952355 
L 204.386496 91.018256 
L 204.176263 91.086634 
L 203.966029 91.157439 
L 203.755795 91.230623 
L 203.545562 91.306147 
L 203.335328 91.383972 
L 203.125095 91.464067 
L 202.914861 91.546401 
L 202.704627 91.630947 
L 202.494394 91.71768 
L 202.28416 91.806577 
L 202.073927 91.897618 
L 201.863693 91.990782 
L 201.653459 92.086053 
L 201.443226 92.183412 
L 201.232992 92.282845 
L 201.022759 92.384336 
L 200.812525 92.48787 
L 200.602291 92.593433 
L 200.392058 92.701014 
L 200.181824 92.810597 
L 199.971591 92.922171 
L 199.761357 93.035724 
L 199.551123 93.151241 
L 199.34089 93.268712 
L 199.130656 93.388123 
L 198.920423 93.509462 
L 198.710189 93.632716 
L 198.499956 93.757872 
L 198.289722 93.884916 
L 198.079488 94.013834 
L 197.869255 94.144612 
L 197.659021 94.277236 
L 197.448788 94.41169 
L 197.238554 94.547958 
L 197.02832 94.686024 
L 196.818087 94.825871 
L 196.607853 94.967481 
L 196.39762 95.110836 
L 196.187386 95.255917 
L 195.977152 95.402705 
L 195.766919 95.551177 
L 195.556685 95.701314 
L 195.346452 95.853093 
L 195.136218 96.00649 
L 194.925984 96.161483 
L 194.715751 96.318046 
L 194.505517 96.476154 
L 194.295284 96.635779 
L 194.08505 96.796896 
L 193.874816 96.959475 
L 193.664583 97.123488 
L 193.454349 97.288904 
L 193.244116 97.455692 
L 193.033882 97.623821 
L 192.823648 97.793258 
L 192.613415 97.963968 
L 192.403181 98.135919 
L 192.192948 98.309073 
L 191.982714 98.483395 
L 191.772481 98.658848 
L 191.562247 98.835394 
L 191.352013 99.012993 
L 191.14178 99.191607 
L 190.931546 99.371196 
L 190.721313 99.551717 
L 190.511079 99.733129 
L 190.300845 99.91539 
L 190.090612 100.098456 
L 189.880378 100.282284 
L 189.670145 100.466829 
L 189.459911 100.652045 
L 189.249677 100.837888 
L 189.039444 101.024312 
L 188.82921 101.211268 
L 188.618977 101.398712 
L 188.408743 101.586594 
L 188.198509 101.774867 
L 187.988276 101.963483 
L 187.778042 102.152394 
L 187.567809 102.34155 
L 187.357575 102.530903 
L 187.147341 102.720404 
L 186.937108 102.910003 
L 186.726874 103.099651 
L 186.516641 103.2893 
L 186.306407 103.478898 
L 186.096174 103.668399 
L 185.88594 103.857751 
L 185.675706 104.046907 
L 185.465473 104.235818 
L 185.255239 104.424434 
L 185.045006 104.612709 
L 184.834772 104.800594 
L 184.624538 104.988043 
L 184.414305 105.175007 
L 184.204071 105.36144 
L 183.993838 105.547297 
L 183.783604 105.732533 
L 183.57337 105.917102 
L 183.363137 106.100962 
L 183.152903 106.284067 
L 182.94267 106.466377 
L 182.732436 106.647849 
L 182.522202 106.828443 
L 182.311969 107.008118 
L 182.101735 107.186837 
L 181.891502 107.36456 
L 181.681268 107.54125 
L 181.471034 107.716873 
L 181.260801 107.891393 
L 181.050567 108.064777 
L 180.840334 108.236991 
L 180.6301 108.408005 
L 180.419867 108.577789 
L 180.209633 108.746313 
L 179.999399 108.91355 
L 179.789166 109.079474 
L 179.578932 109.24406 
L 179.368699 109.407284 
L 179.158465 109.569124 
L 178.948231 109.729559 
L 178.737998 109.888569 
L 178.527764 110.046137 
L 178.317531 110.202245 
L 178.107297 110.356879 
L 177.897063 110.510025 
L 177.68683 110.66167 
L 177.476596 110.811804 
L 177.266363 110.960418 
L 177.056129 111.107502 
L 176.845895 111.253052 
L 176.635662 111.397061 
L 176.425428 111.539527 
L 176.215195 111.680446 
L 176.004961 111.81982 
L 175.794727 111.957647 
L 175.584494 112.093932 
L 175.37426 112.228676 
L 175.164027 112.361886 
L 174.953793 112.493566 
L 174.74356 112.623727 
L 174.533326 112.752375 
L 174.323092 112.879522 
L 174.112859 113.005179 
L 173.902625 113.12936 
L 173.692392 113.252078 
L 173.482158 113.373349 
L 173.271924 113.493189 
L 173.061691 113.611616 
L 172.851457 113.72865 
L 172.641224 113.844309 
L 172.43099 113.958615 
L 172.220756 114.071591 
L 172.010523 114.183258 
L 171.800289 114.293641 
L 171.590056 114.402765 
L 171.379822 114.510655 
L 171.169588 114.617339 
L 170.959355 114.722843 
L 170.749121 114.827196 
L 170.538888 114.930426 
L 170.328654 115.032564 
L 170.11842 115.133638 
L 169.908187 115.23368 
L 169.697953 115.332722 
L 169.48772 115.430795 
L 169.277486 115.52793 
L 169.067253 115.624162 
L 168.857019 115.719523 
L 168.646785 115.814046 
L 168.436552 115.907765 
L 168.226318 116.000713 
L 168.016085 116.092926 
L 167.805851 116.184437 
L 167.595617 116.275281 
L 167.385384 116.365492 
L 167.17515 116.455105 
L 166.964917 116.544154 
L 166.754683 116.632673 
L 166.544449 116.720698 
L 166.334216 116.808262 
L 166.123982 116.8954 
L 165.913749 116.982145 
L 165.703515 117.068532 
L 165.493281 117.154593 
L 165.283048 117.240362 
L 165.072814 117.325871 
L 164.862581 117.411154 
L 164.652347 117.496242 
L 164.442113 117.581167 
L 164.23188 117.66596 
L 164.021646 117.750653 
L 163.811413 117.835274 
L 163.601179 117.919854 
L 163.390945 118.004421 
L 163.180712 118.089006 
L 162.970478 118.173635 
L 162.760245 118.258336 
L 162.550011 118.343135 
L 162.339778 118.428059 
L 162.129544 118.513132 
L 161.91931 118.598381 
L 161.709077 118.683828 
L 161.498843 118.769496 
L 161.28861 118.855409 
L 161.078376 118.941588 
L 160.868142 119.028054 
L 160.657909 119.114827 
L 160.447675 119.201927 
L 160.237442 119.289372 
L 160.027208 119.377181 
L 159.816974 119.465369 
L 159.606741 119.553954 
L 159.396507 119.642951 
L 159.186274 119.732375 
L 158.97604 119.822239 
L 158.765806 119.912556 
L 158.555573 120.00334 
L 158.345339 120.094601 
L 158.135106 120.186349 
L 157.924872 120.278596 
L 157.714638 120.371349 
L 157.504405 120.464618 
L 157.294171 120.55841 
L 157.083938 120.652731 
L 156.873704 120.747587 
L 156.663471 120.842985 
L 156.453237 120.938927 
L 156.243003 121.035419 
L 156.03277 121.132463 
L 155.822536 121.230062 
L 155.612303 121.328217 
L 155.402069 121.426929 
L 155.191835 121.526199 
L 154.981602 121.626026 
L 154.771368 121.72641 
L 154.561135 121.827348 
L 154.350901 121.928838 
L 154.140667 122.030879 
L 153.930434 122.133465 
L 153.7202 122.236594 
L 153.509967 122.340261 
L 153.299733 122.444461 
L 153.089499 122.549187 
L 152.879266 122.654436 
L 152.669032 122.760198 
L 152.458799 122.866469 
L 152.248565 122.973239 
L 152.038331 123.080502 
L 151.828098 123.188249 
L 151.617864 123.296471 
L 151.407631 123.40516 
L 151.197397 123.514305 
L 150.987164 123.623897 
L 150.77693 123.733925 
L 150.566696 123.84438 
L 150.356463 123.95525 
L 150.146229 124.066524 
L 149.935996 124.178192 
L 149.725762 124.290241 
L 149.515528 124.402659 
L 149.305295 124.515435 
L 149.095061 124.628556 
L 148.884828 124.742009 
L 148.674594 124.855783 
L 148.46436 124.969863 
L 148.254127 125.084238 
L 148.043893 125.198894 
L 147.83366 125.313817 
L 147.623426 125.428995 
L 147.413192 125.544414 
L 147.202959 125.66006 
L 146.992725 125.775919 
L 146.782492 125.891979 
L 146.572258 126.008224 
L 146.362024 126.124642 
L 146.151791 126.241218 
L 145.941557 126.357938 
L 145.731324 126.474789 
L 145.52109 126.591757 
L 145.310857 126.708827 
L 145.100623 126.825986 
L 144.890389 126.943219 
L 144.680156 127.060514 
L 144.469922 127.177856 
L 144.259689 127.295231 
L 144.049455 127.412626 
L 143.839221 127.530027 
L 143.628988 127.647419 
L 143.418754 127.764791 
L 143.208521 127.882128 
L 142.998287 127.999416 
L 142.788053 128.116643 
L 142.57782 128.233794 
L 142.367586 128.350858 
L 142.157353 128.467821 
L 141.947119 128.584669 
L 141.736885 128.701391 
L 141.526652 128.817972 
L 141.316418 128.934401 
L 141.106185 129.050666 
L 140.895951 129.166752 
L 140.685717 129.282649 
L 140.475484 129.398344 
L 140.26525 129.513825 
L 140.055017 129.62908 
L 139.844783 129.744097 
L 139.634549 129.858864 
L 139.424316 129.973369 
L 139.214082 130.087602 
L 139.003849 130.201551 
L 138.793615 130.315204 
L 138.583382 130.428551 
L 138.373148 130.54158 
L 138.162914 130.654281 
L 137.952681 130.766642 
L 137.742447 130.878654 
L 137.532214 130.990305 
L 137.32198 131.101585 
L 137.111746 131.212484 
L 136.901513 131.322992 
L 136.691279 131.433099 
L 136.481046 131.542794 
L 136.270812 131.652068 
L 136.060578 131.760912 
L 135.850345 131.869315 
L 135.640111 131.977268 
L 135.429878 132.084762 
L 135.219644 132.191787 
L 135.00941 132.298335 
L 134.799177 132.404395 
L 134.588943 132.50996 
L 134.37871 132.615021 
L 134.168476 132.719568 
L 133.958242 132.823592 
L 133.748009 132.927086 
L 133.537775 133.030041 
L 133.327542 133.132448 
L 133.117308 133.234299 
L 132.907075 133.335586 
L 132.696841 133.436301 
L 132.486607 133.536435 
L 132.276374 133.63598 
L 132.06614 133.734929 
L 131.855907 133.833274 
L 131.645673 133.931006 
L 131.435439 134.028119 
L 131.225206 134.124604 
L 131.014972 134.220454 
L 130.804739 134.315661 
L 130.594505 134.410218 
L 130.384271 134.504117 
L 130.174038 134.597352 
L 129.963804 134.689914 
L 129.753571 134.781797 
L 129.543337 134.872992 
L 129.333103 134.963494 
L 129.12287 135.053295 
L 128.912636 135.142387 
L 128.702403 135.230764 
L 128.492169 135.318419 
L 128.281935 135.405344 
L 128.071702 135.491533 
L 127.861468 135.576978 
L 127.651235 135.661674 
L 127.441001 135.745613 
L 127.230768 135.828787 
L 127.020534 135.911191 
L 126.8103 135.992817 
L 126.600067 136.073659 
L 126.389833 136.15371 
L 126.1796 136.232962 
L 125.969366 136.31141 
L 125.759132 136.389047 
L 125.548899 136.465865 
L 125.338665 136.541858 
L 125.128432 136.617019 
L 124.918198 136.691341 
L 124.707964 136.764818 
L 124.497731 136.837443 
L 124.287497 136.909208 
L 124.077264 136.980108 
L 123.86703 137.050135 
L 123.656796 137.119283 
L 123.446563 137.187543 
L 123.236329 137.254911 
L 123.026096 137.321377 
L 122.815862 137.386937 
L 122.605628 137.451582 
L 122.395395 137.515305 
L 122.185161 137.578099 
L 121.974928 137.639958 
L 121.764694 137.700873 
L 121.554461 137.760837 
L 121.344227 137.819844 
L 121.133993 137.877885 
L 120.92376 137.934952 
L 120.713526 137.991039 
L 120.503293 138.046137 
L 120.293059 138.100239 
L 120.082825 138.153336 
L 119.872592 138.20542 
L 119.662358 138.256484 
L 119.452125 138.306517 
L 119.241891 138.355513 
L 119.031657 138.403461 
L 118.821424 138.450354 
L 118.61119 138.49618 
L 118.400957 138.540933 
L 118.190723 138.5846 
L 117.980489 138.627172 
L 117.770256 138.66864 
L 117.560022 138.708991 
L 117.349789 138.748215 
L 117.139555 138.7863 
L 116.929321 138.823234 
L 116.719088 138.859004 
L 116.508854 138.893597 
L 116.298621 138.926998 
L 116.088387 138.959193 
L 115.878154 138.990166 
L 115.66792 139.019899 
L 115.457686 139.048373 
L 115.247453 139.07557 
L 115.037219 139.101466 
L 114.826986 139.126038 
L 114.616752 139.149257 
L 114.406518 139.171093 
L 114.196285 139.191509 
L 113.986051 139.210461 
L 113.775818 139.227896 
L 113.565584 139.243743 
L 113.35535 139.257902 
L 113.145117 139.2702 
L 112.934883 139.28044 
L 112.72465 139.290115 
L 112.514416 139.299578 
L 112.304182 139.308829 
L 112.093949 139.317866 
L 111.883715 139.32669 
L 111.673482 139.335299 
L 111.463248 139.343692 
L 111.253014 139.351869 
L 111.042781 139.35983 
L 110.832547 139.367572 
L 110.622314 139.375095 
L 110.41208 139.382398 
L 110.201846 139.389481 
L 109.991613 139.396342 
L 109.781379 139.40298 
L 109.571146 139.409395 
L 109.360912 139.415584 
L 109.150679 139.421547 
L 108.940445 139.427284 
L 108.730211 139.432791 
L 108.519978 139.43807 
L 108.309744 139.443117 
L 108.099511 139.447933 
L 107.889277 139.452515 
L 107.679043 139.456862 
L 107.46881 139.460974 
L 107.258576 139.464848 
L 107.048343 139.468483 
L 106.838109 139.471878 
L 106.627875 139.475031 
L 106.417642 139.477941 
L 106.207408 139.480606 
L 105.997175 139.483025 
L 105.786941 139.485196 
L 105.576707 139.487118 
L 105.366474 139.488788 
L 105.15624 139.490205 
L 104.946007 139.491368 
L 104.735773 139.492275 
L 104.525539 139.492923 
L 104.315306 139.493311 
L 104.105072 139.493438 
L 103.894839 139.493302 
L 103.684605 139.492899 
L 103.474372 139.49223 
L 103.264138 139.491291 
L 103.053904 139.490081 
L 102.843671 139.488597 
L 102.633437 139.486839 
L 102.423204 139.484803 
L 102.21297 139.482487 
L 102.002736 139.47989 
L 101.792503 139.47701 
L 101.582269 139.473843 
L 101.372036 139.470389 
L 101.161802 139.466644 
L 100.951568 139.462606 
L 100.741335 139.458274 
L 100.531101 139.453645 
L 100.320868 139.448717 
L 100.110634 139.443486 
L 99.9004 139.437952 
L 99.690167 139.43211 
L 99.479933 139.42596 
L 99.2697 139.419499 
L 99.059466 139.412723 
L 98.849232 139.405631 
L 98.638999 139.39822 
L 98.428765 139.390487 
L 98.218532 139.38243 
L 98.008298 139.374046 
L 97.798065 139.365333 
L 97.587831 139.356287 
L 97.377597 139.346907 
L 97.167364 139.337189 
L 96.95713 139.327131 
L 96.746897 139.316729 
L 96.536663 139.305982 
L 96.326429 139.294886 
L 96.116196 139.283438 
L 95.905962 139.271636 
L 95.695729 139.259477 
L 95.485495 139.246957 
L 95.275261 139.234074 
L 95.065028 139.220825 
L 94.854794 139.207207 
L 94.644561 139.193217 
L 94.434327 139.178851 
L 94.224093 139.164107 
L 94.01386 139.148982 
L 93.803626 139.133472 
L 93.593393 139.117574 
L 93.383159 139.101286 
L 93.172925 139.084604 
L 92.962692 139.067525 
L 92.752458 139.050045 
L 92.542225 139.032162 
L 92.331991 139.013872 
L 92.121758 138.995172 
L 91.911524 138.976058 
L 91.70129 138.956528 
L 91.491057 138.936577 
L 91.280823 138.916203 
L 91.07059 138.895402 
L 90.860356 138.874171 
L 90.650122 138.852506 
L 90.439889 138.830405 
L 90.229655 138.807862 
L 90.019422 138.784876 
L 89.809188 138.761442 
L 89.598954 138.737556 
L 89.388721 138.713217 
L 89.178487 138.688419 
L 88.968254 138.663159 
L 88.75802 138.637434 
L 88.547786 138.61124 
L 88.337553 138.584573 
L 88.127319 138.55743 
L 87.917086 138.529808 
L 87.706852 138.501701 
L 87.496618 138.473108 
L 87.286385 138.444024 
L 87.076151 138.414444 
L 86.865918 138.384367 
L 86.655684 138.353787 
L 86.445451 138.322701 
L 86.235217 138.291106 
L 86.024983 138.258997 
L 85.81475 138.22637 
L 85.604516 138.193223 
L 85.394283 138.15955 
L 85.184049 138.125348 
L 84.973815 138.090614 
L 84.763582 138.055343 
L 84.553348 138.019531 
L 84.343115 137.983175 
L 84.132881 137.946271 
L 83.922647 137.908814 
L 83.712414 137.870801 
L 83.50218 137.832228 
L 83.291947 137.79309 
L 83.081713 137.753384 
L 82.871479 137.713106 
L 82.661246 137.672252 
L 82.451012 137.630818 
L 82.240779 137.588799 
L 82.030545 137.546193 
L 81.820311 137.502993 
L 81.610078 137.459198 
L 81.399844 137.414802 
L 81.189611 137.369801 
L 80.979377 137.324192 
L 80.769143 137.27797 
L 80.55891 137.231132 
L 80.348676 137.183672 
L 80.138443 137.135588 
L 79.928209 137.086874 
L 79.717976 137.037528 
L 79.507742 136.987544 
L 79.297508 136.936918 
L 79.087275 136.885647 
L 78.877041 136.833726 
L 78.666808 136.781151 
L 78.456574 136.727918 
L 78.24634 136.674022 
L 78.036107 136.61946 
L 77.825873 136.564228 
L 77.61564 136.508321 
L 77.405406 136.451735 
L 77.195172 136.394466 
L 76.984939 136.336509 
L 76.774705 136.277861 
L 76.564472 136.218517 
L 76.354238 136.158474 
L 76.144004 136.097726 
L 75.933771 136.03627 
L 75.723537 135.974102 
L 75.513304 135.911217 
L 75.30307 135.847611 
L 75.092836 135.783281 
L 74.882603 135.718221 
L 74.672369 135.652427 
L 74.462136 135.585896 
L 74.251902 135.518624 
L 74.041669 135.450605 
L 73.831435 135.381836 
L 73.621201 135.312313 
L 73.410968 135.242032 
L 73.200734 135.170988 
L 72.990501 135.099177 
L 72.780267 135.026595 
L 72.570033 134.953238 
L 72.3598 134.879102 
L 72.149566 134.804183 
L 71.939333 134.728476 
L 71.729099 134.651977 
L 71.518865 134.574683 
L 71.308632 134.496589 
L 71.098398 134.41769 
L 70.888165 134.337984 
L 70.677931 134.257466 
L 70.467697 134.176131 
L 70.257464 134.093976 
L 70.04723 134.010996 
L 69.836997 133.927189 
L 69.626763 133.842548 
L 69.416529 133.757072 
L 69.206296 133.670755 
L 68.996062 133.583593 
L 68.785829 133.495583 
L 68.575595 133.406721 
L 68.365362 133.317002 
L 68.155128 133.226423 
L 67.944894 133.134979 
L 67.734661 133.042668 
L 67.524427 132.949484 
L 67.314194 132.855425 
L 67.10396 132.760486 
L 66.893726 132.664663 
L 66.683493 132.567953 
L 66.473259 132.470351 
L 66.263026 132.371855 
L 66.052792 132.272459 
L 65.842558 132.172162 
L 65.632325 132.070958 
L 65.422091 131.968844 
L 65.211858 131.865816 
L 65.001624 131.761871 
L 64.79139 131.657006 
L 64.581157 131.551216 
L 64.370923 131.444498 
L 64.16069 131.336848 
L 63.950456 131.228263 
L 63.740222 131.11874 
L 63.529989 131.008274 
L 63.319755 130.896863 
L 63.109522 130.784503 
L 62.899288 130.671191 
L 62.689055 130.556923 
L 62.478821 130.441696 
L 62.268587 130.325507 
L 62.058354 130.208352 
L 61.84812 130.090229 
L 61.637887 129.971134 
L 61.427653 129.851064 
L 61.217419 129.730015 
L 61.007186 129.607986 
L 60.796952 129.484972 
L 60.586719 129.360971 
L 60.376485 129.23598 
L 60.166251 129.109996 
L 59.956018 128.983016 
L 59.745784 128.855038 
L 59.535551 128.726057 
L 59.325317 128.596073 
L 59.115083 128.465082 
L 58.90485 128.333081 
L 58.694616 128.200067 
L 58.484383 128.06604 
L 58.274149 127.930995 
L 58.063915 127.79493 
L 57.853682 127.657843 
L 57.643448 127.519732 
L 57.433215 127.380594 
L 57.222981 127.240428 
L 57.012747 127.09923 
L 56.802514 126.956999 
L 56.59228 126.813734 
L 56.382047 126.66943 
L 56.171813 126.524088 
L 55.96158 126.377705 
L 55.751346 126.230279 
L 55.541112 126.081809 
L 55.330879 125.932293 
L 55.120645 125.781728 
L 54.910412 125.630115 
L 54.700178 125.477451 
L 54.489944 125.323734 
L 54.279711 125.168965 
L 54.069477 125.013141 
L 53.859244 124.856261 
L 53.64901 124.698324 
L 53.438776 124.539329 
L 53.228543 124.379276 
L 53.018309 124.218163 
L 52.808076 124.05599 
L 52.597842 123.892755 
L 52.387608 123.72846 
L 52.177375 123.563102 
L 51.967141 123.396683 
L 51.756908 123.2292 
L 51.546674 123.060655 
L 51.33644 122.891047 
L 51.126207 122.720376 
L 50.915973 122.548643 
L 50.70574 122.375847 
L 50.495506 122.201989 
L 50.285273 122.02707 
L 50.075039 121.851089 
L 49.864805 121.674048 
L 49.654572 121.495948 
L 49.444338 121.316788 
L 49.234105 121.136572 
L 49.023871 120.955298 
L 48.813637 120.77297 
L 48.603404 120.589588 
L 48.39317 120.405154 
L 48.182937 120.219669 
L 47.972703 120.033136 
L 47.762469 119.845556 
L 47.552236 119.656932 
L 47.342002 119.467265 
L 47.131769 119.276558 
L 46.921535 119.084815 
L 46.711301 118.892036 
L 46.501068 118.698226 
L 46.290834 118.503388 
L 46.080601 118.307524 
L 45.870367 118.110638 
L 45.660133 117.912734 
L 45.4499 117.713815 
L 45.239666 117.513886 
L 45.029433 117.31295 
L 44.819199 117.111011 
L 44.608966 116.908075 
L 44.398732 116.704145 
L 44.188498 116.499228 
L 43.978265 116.293327 
L 43.768031 116.086449 
L 43.557798 115.878598 
L 43.347564 115.669781 
L 43.13733 115.460003 
L 42.927097 115.249271 
L 42.716863 115.037591 
L 42.50663 114.82497 
L 42.296396 114.611415 
L 42.086162 114.396933 
L 41.875929 114.181531 
L 41.665695 113.965217 
L 41.455462 113.748 
L 41.245228 113.529887 
L 41.034994 113.310886 
L 40.824761 113.091008 
L 40.614527 112.87026 
L 40.404294 112.648652 
L 40.19406 112.426195 
L 39.983826 112.202897 
L 39.773593 111.97877 
L 39.563359 111.753825 
L 39.353126 111.528071 
L 39.142892 111.301521 
L 38.932659 111.074186 
L 38.722425 110.846079 
L 38.512191 110.617212 
L 38.301958 110.387597 
L 38.091724 110.157249 
L 37.881491 109.926181 
L 37.671257 109.694406 
L 37.461023 109.46194 
L 37.25079 109.228797 
L 37.040556 108.994993 
L 36.830323 108.760544 
L 36.620089 108.525465 
L 36.409855 108.289774 
L 36.199622 108.053489 
L 35.989388 107.816626 
L 35.779155 107.579204 
L 35.568921 107.341242 
L 35.358687 107.10276 
L 35.148454 106.863778 
L 34.93822 106.624315 
L 34.727987 106.384393 
L 34.517753 106.144035 
L 34.307519 105.903262 
L 34.097286 105.662097 
L 33.887052 105.420565 
L 33.676819 105.178689 
L 33.466585 104.936495 
L 33.256352 104.694009 
L 33.046118 104.451257 
L 32.835884 104.208267 
L 32.625651 103.965068 
L 32.415417 103.721687 
L 32.205184 103.478155 
L 31.99495 103.234504 
L 31.784716 102.990764 
L 31.574483 102.746968 
L 31.364249 102.503151 
L 31.154016 102.259346 
L 30.943782 102.01559 
L 30.733548 101.771919 
L 30.523315 101.528372 
L 30.313081 101.284987 
L 30.102848 101.041806 
L 29.892614 100.798869 
L 29.68238 100.55622 
L 29.472147 100.313902 
L 29.261913 100.071963 
L 29.05168 99.830449 
L 28.841446 99.589409 
L 28.631212 99.348893 
L 28.420979 99.108955 
L 28.210745 98.869646 
L 28.000512 98.631025 
L 27.790278 98.393147 
L 27.580044 98.156073 
L 27.369811 97.919866 
L 27.159577 97.684588 
L 26.949344 97.450308 
L 26.73911 97.217093 
L 26.528877 96.985015 
L 26.318643 96.75415 
L 26.108409 96.524574 
L 25.898176 96.296368 
L 25.687942 96.069616 
L 25.477709 95.844405 
L 25.267475 95.620827 
L 25.057241 95.398977 
L 24.847008 95.178955 
L 24.636774 94.960864 
L 24.426541 94.744814 
L 24.216307 94.53092 
L 24.006073 94.319302 
L 23.79584 94.110087 
L 23.585606 93.903408 
L 23.375373 93.699407 
L 23.165139 93.498233 
L 22.954905 93.300045 
L 22.744672 93.105011 
L 22.534438 92.913312 
L 22.324205 92.725141 
L 22.113971 92.540703 
L 21.903737 92.360223 
L 21.693504 92.183941 
L 21.48327 92.012121 
L 21.273037 91.845049 
L 21.062803 91.683043 
L 20.85257 91.526454 
L 20.642336 91.375676 
L 20.432102 91.231156 
L 20.221869 91.093406 
L 20.011635 90.963023 
L 19.801402 90.840719 
L 19.591168 90.727365 
L 19.380934 90.624065 
L 19.170701 90.532298 
L 18.960467 90.454215 
L 18.750234 90.393462 
z
" clip-path="url(#pd3473a0414)" style="fill: #77aacc; stroke: #000000; stroke-width: 1.5; stroke-linejoin: miter"/>
   </g>
   <g id="patch_3">
    <path d="M 179.19 84.062938 
C 180.067159 84.062938 180.90851 83.714439 181.528756 83.094194 
C 182.149001 82.473948 182.4975 81.632597 182.4975 80.755438 
C 182.4975 79.878279 182.149001 79.036928 181.528756 78.416682 
C 180.90851 77.796437 180.067159 77.447938 179.19 77.447938 
C 178.312841 77.447938 177.47149 77.796437 176.851244 78.416682 
C 176.230999 79.036928 175.8825 79.878279 175.8825 80.755438 
C 175.8825 81.632597 176.230999 82.473948 176.851244 83.094194 
C 177.47149 83.714439 178.312841 84.062938 179.19 84.062938 
z
" clip-path="url(#pd3473a0414)" style="stroke: #000000; stroke-linejoin: miter"/>
   </g>
   <g id="patch_4">
    <path d="M 179.19 103.272062 
C 180.067159 103.272062 180.90851 102.923563 181.528756 102.303318 
C 182.149001 101.683072 182.4975 100.841721 182.4975 99.964562 
C 182.4975 99.087403 182.149001 98.246052 181.528756 97.625806 
C 180.90851 97.005561 180.067159 96.657062 179.19 96.657062 
C 178.312841 96.657062 177.47149 97.005561 176.851244 97.625806 
C 176.230999 98.246052 175.8825 99.087403 175.8825 99.964562 
C 175.8825 100.841721 176.230999 101.683072 176.851244 102.303318 
C 177.47149 102.923563 178.312841 103.272062 179.19 103.272062 
z
" clip-path="url(#pd3473a0414)" style="stroke: #000000; stroke-linejoin: miter"/>
   </g>
  </g>
 </g>
 <defs>
  <clipPath id="pd3473a0414">
   <rect x="7.2" y="7.2" width="211.68" height="166.32"/>
  </clipPath>
 </defs>
</svg>
